<?xml version="1.0" encoding="utf-8"?>
<!-- Generator: Adobe Illustrator 16.0.0, SVG Export Plug-In . SVG Version: 6.00 Build 0)  -->
<!DOCTYPE svg PUBLIC "-//W3C//DTD SVG 1.1//EN" "http://www.w3.org/Graphics/SVG/1.1/DTD/svg11.dtd">
<svg version="1.1" id="Layer_1" xmlns="http://www.w3.org/2000/svg" xmlns:xlink="http://www.w3.org/1999/xlink" x="0px" y="0px"
	 width="14400px" height="14400px" viewBox="0 0 14400 14400" enable-background="new 0 0 14400 14400" xml:space="preserve">
<g>
	<path fill-rule="evenodd" clip-rule="evenodd" fill="#97362D" d="M7080.847,7253.588c0-2.825,0-5.646,0-8.469
		c1.294-0.359,1.103-1.438,1.199-2.407c1.013-10.095,4.534-19.262,9.88-27.856c11.15-17.925,27.095-30.599,44.847-41.295
		c2.281-1.375,3.339-2.75,3.42-5.519c0.695-23.336,4.885-46.047,14.604-67.332c8.614-18.868,21.963-33.6,41.481-41.928
		c1.115-0.475,2.349-1.646,3.762-0.154c1.049,1.107,0.647,2.205,0.455,3.361c-0.181,1.075-1.615,1.969-0.387,3.31
		c5.982-3.443,11.55-7.711,18.369-9.606c4.095-1.138,8.572-0.633,12.386-2.933c1.21,0,2.42,0,3.63,0
		c0.537,1.858,0.296,2.933-1.647,4.308c-3.778,2.667-7.353,5.715-10.183,9.549c-5.75,7.792-5.208,10.058,3.577,13.348
		c0.36,0.136,0.655,0.446,0.981,0.675c-0.025,2.403,0.474,4.713,0.89,7.077c1.271,7.233,4.279,14.16,3.91,21.679
		c-8.936-0.284-17.887-0.444-26.706-2.133c-10.304-1.974-16.336-0.002-19.507,7.019c-1.862,4.122-3.05,8.548-4.545,12.836
		c-0.728,2.089-0.946,3.643,1.976,4.409c2.638,0.693,5.375,3.151,3.692,5.68c-4.487,6.738-9.902,12.866-15,19.16
		c-7.903,9.758-8.148,10.392-3.391,21.755c3.938,9.41,11.056,16.072,17.631,23.302c-1.672,1.124-2.979,0.6-4.869-0.129
		c-11.39-4.387-20.014-13.019-30.244-19.149c-0.449-0.287-0.895-0.581-1.36-0.84c-0.022-0.013-0.217,0.282-0.332,0.434
		c0.52,0.186,1.041,0.373,1.563,0.56c0.17,6.13,6.138,8.511,8.535,13.201c-7.502,3.273-10.849,10.367-14.673,16.729
		c-15.975,26.582-16.337,53.493-1.442,80.835c3.737,6.86,8.708,12.82,12.461,19.602c-8.087,3.689-16.176,7.379-24.265,11.068
		c-2.934,0.576-5.939,0.926-8.775,1.813c-1.726,0.54-2.842,0.616-4.301-0.643c-13.81-11.905-24.229-26.093-30.771-43.254
		C7084.216,7272.517,7083.537,7262.836,7080.847,7253.588z"/>
	<path fill-rule="evenodd" clip-rule="evenodd" fill="#A7423D" d="M7308.289,7277.782c-2.381,4.853-1.92,10.304-3.011,15.43
		c-1.25,5.856-3.274,10.288-9.034,12.479c-0.828-0.034-1.656-0.069-2.483-0.104c-3.676-0.783-3.117-3.017-2.008-5.583
		c7.873-18.21,8.877-36.901,4.812-56.245c-1.241-5.907-3.765-11.284-5.056-17.089c7.931,7.421,10.552,17.474,13.311,27.375
		c1.503,5.396,2.336,10.98,3.47,16.48C7308.289,7272.944,7308.289,7275.363,7308.289,7277.782z"/>
	<path fill-rule="evenodd" clip-rule="evenodd" fill="#E19972" d="M7187.513,7334.88c0.808,1.126,2.261,2.229,2.299,3.382
		c0.111,3.281,0.745,5.333,4.727,5.005c2.021-0.167,2.326,1.808,2.448,3.476c-7.662,0-15.324,0-22.987,0
		c0.325-3.952,0.649-7.901,0.974-11.854C7179.154,7334.885,7183.333,7334.884,7187.513,7334.88z"/>
	<path fill-rule="evenodd" clip-rule="evenodd" fill="#E19972" d="M7211.505,7346.742c0.039-3.647,0.076-7.293,0.113-10.939
		c4.869-0.079,9.818,1.081,14.562-0.948c0.351,1.314,1.012,2.638,0.988,3.947c-0.05,2.747,0.313,4.804,3.802,4.3
		c2.834-0.41,3.227,1.576,3.521,3.641C7226.828,7346.742,7219.167,7346.742,7211.505,7346.742z"/>
	<path fill-rule="evenodd" clip-rule="evenodd" fill="#E19972" d="M7255.084,7175.02c0.561,3.345,2.818,1.889,4.622,1.607
		c6.839-1.069,12.654-4.892,19.635-7.766c-2.372,9.79-5.651,18.328-11.522,25.641c-1.549,1.928-2.058,3.774-1.812,6.046
		c-1.485,4.759-5.525,6.582-9.604,8.361c-6.354,2.958-13.026,4.992-19.757,6.867c-5.792,0.03-11.584,0.061-17.376,0.091
		c-2.668-0.76-5.317-1.6-8.01-2.265c-9.229-2.286-17.11-7.327-25.089-12.179c-6.576-7.229-13.693-13.892-17.631-23.302
		c-4.757-11.363-4.512-11.997,3.391-21.755c5.097-6.294,10.512-12.422,15-19.16c1.683-2.529-1.054-4.987-3.692-5.68
		c-2.922-0.767-2.704-2.32-1.976-4.409c1.496-4.289,2.683-8.715,4.545-12.836c3.17-7.021,9.203-8.993,19.507-7.019
		c8.819,1.688,17.771,1.849,26.706,2.134c2.802,0.061,5.601,0.122,8.401,0.183c0.163,1.64,0.436,3.823,2.397,3.546
		c6.536-0.918,7.286,4.008,7.771,8.079c0.556,4.647,3.131,5.33,6.902,6.375c11.138,3.087,22.211,6.623,28.891,17.294
		c-4.442,0.13-8.866-1.139-13.315-0.143c-5.206-0.063-10.418,0.032-15.614-0.217c-13.731-0.658-26.979,2.392-40.285,5.041
		c-11.583,2.974-21.822,8.92-32.185,14.584c-2.483,1.356-2.932,2.97-0.423,4.852c1.783,1.339,3.764,2.037,5.949,2.46
		c5.452,1.055,10.871,2.276,16.303,3.431c3.227,0.41,6.453,0.819,9.68,1.229c2.396,1.198,5.018,0.992,7.575,1.247
		C7234.551,7178.401,7244.834,7176.948,7255.084,7175.02z M7193.151,7122.965c0.017,0.291-0.208,1.413,0.188,2.238
		c2.743,5.747,19.99,7.272,22.97,1.667c2.348-4.416,4.527-5.886,9.271-3.953c1.897,0.773,4.736,0.863,6.514-0.017
		c4.672-2.312,8.499-1.165,12.593,1.264c1.265,0.749,4.314,1.155,4.013-1.542c-0.366-3.28,0.364-7.568-5.867-7.488
		c-13.461,0.173-26.931-0.585-40.399-0.904C7194.558,7114.042,7193.983,7114.593,7193.151,7122.965z"/>
	<path fill-rule="evenodd" clip-rule="evenodd" fill="#E32D31" d="M7236.646,7215.777c6.73-1.875,13.403-3.909,19.756-6.867
		c0.238,3.045-2.358,5.226-2.489,8.16c-6.65,2.97-12.051,8.314-19.352,10.08c-1.805,0.436-1.287,2.298-1.44,3.604
		c-1.175,10.108-3.987,20.164-3.204,30.327c0.91,11.783-6.441,17.153-14.791,22.311c-0.965,0.598-1.62,1.557-3.074,0.465
		c-3.944-2.968-6.939-14.415-5.011-19.06c5.113-12.315,10.092-24.688,15.262-37.377c-12.499-1.814-24-5.117-34.34-11.38
		c-2.584-1.564-2.623,1.818-4.211,0.951c-0.282-1.13-0.187-2.815-0.906-3.307c-6.293-4.287-11.534-10.041-18.523-13.347
		c-0.717-2.518-2.305-4.162-4.857-4.837c-2.397-4.69-8.365-7.071-8.535-13.201l0.13-0.154c10.229,6.131,18.853,14.763,30.243,19.15
		c1.891,0.729,3.197,1.253,4.869,0.129c7.979,4.852,15.859,9.893,25.089,12.179c2.692,0.665,5.342,1.505,8.006,2.267
		c-0.639,0.272-1.594,1.139-1.52,1.134C7224.047,7216.64,7230.55,7218.988,7236.646,7215.777z"/>
	<path fill-rule="evenodd" clip-rule="evenodd" fill="#A7423D" d="M7159.464,7195.501c2.552,0.675,4.14,2.319,4.857,4.838
		c-0.149,2.608-2.07,4.318-3.376,6.271c-9.246,13.824-14.906,29.069-14.509,45.611c0.389,16.222,5.822,31.434,14.222,45.419
		c1.616,2.689,2.741,5.948,6.295,6.93c-0.826,6.676-5.577,7.945-11.143,8.096c-3.752-6.781-8.724-12.741-12.461-19.602
		c-14.895-27.342-14.532-54.253,1.442-80.835C7148.616,7205.868,7151.962,7198.774,7159.464,7195.501z"/>
	<path fill-rule="evenodd" clip-rule="evenodd" fill="#E19972" d="M7155.81,7312.666c5.566-0.15,10.317-1.42,11.142-8.096
		c1.787,0.146,3.681-2.713,5.305-0.072c1.636,2.66,3.958,5.31,2.423,8.827c-0.774,1.772-2.489,3.356,0.824,4.484
		c4.423,1.508,5.233,3.781,1.04,6.814c-1.423,1.03-1.632,3.255-3.519,3.942c-2.383-2.306-4.145-0.814-6.128,0.796
		c-5.277,4.285-11.082,7.747-17.354,10.389c-1.081,0.457-2.264,1.116-3.347,1.028c-2.902-0.237-14.199-13.6-14.649-17.045
		C7139.633,7320.045,7147.722,7316.355,7155.81,7312.666z"/>
	<path fill-rule="evenodd" clip-rule="evenodd" fill="#A7423D" d="M7240.421,7109.58c-2.801-0.061-5.6-0.122-8.401-0.183
		c0.369-7.521-2.64-14.447-3.91-21.68c-0.416-2.364-0.915-4.674-0.89-7.077c2.305-0.428,3.12,1.046,3.881,2.842
		C7234.705,7092.004,7237.946,7100.654,7240.421,7109.58z"/>
	<path fill-rule="evenodd" clip-rule="evenodd" fill="#E32D31" d="M7150.929,7182.3c-0.522-0.187-1.042-0.374-1.563-0.56
		c0.115-0.152,0.309-0.447,0.332-0.434c0.465,0.259,0.911,0.553,1.36,0.84C7151.059,7182.146,7150.929,7182.3,7150.929,7182.3z"/>
	<path fill-rule="evenodd" clip-rule="evenodd" fill="#97362D" d="M7253.912,7217.069c0.131-2.934,2.728-5.114,2.489-8.159
		c4.08-1.779,8.12-3.603,9.605-8.361c9.58,5.502,17.447,12.868,23.954,21.771c1.01,1.381,1.65,2.676,1.548,4.349
		c1.291,5.805,3.814,11.182,5.056,17.089c4.065,19.344,3.062,38.035-4.812,56.245c-1.109,2.566-1.668,4.8,2.008,5.583
		c-3.675,2.96-8.426,0.932-12.397,2.72c-7.444,3.354-15.204,5.839-23.133,7.758c-1.646,0.398-3.882,2.285-4.723-1.12
		c0.508-4.51,0.606-8.984-0.714-13.413c-0.58-1.943-0.414-3.877,1.041-5.502c3.065-1.339,2.228-4.937,4.059-6.997
		c5.637-6.343,6.572-14.149,6.956-22.164c0.492-10.3-2.963-19.414-8.255-27.966c-1.601-2.587-2.941-5.328-0.173-7.533
		c3.614-2.876,2.468-5.555,0.635-8.591C7255.934,7220.918,7254.955,7218.975,7253.912,7217.069z"/>
	<path fill-rule="evenodd" clip-rule="evenodd" fill="#B1252C" d="M7255.084,7175.02c-10.25,1.928-20.533,3.381-31.017,2.339
		c-2.558-0.254-5.179-0.049-7.575-1.247c0.08-2.963-2.649-4.907-2.864-7.705c-0.159-2.066-1.697-2.179-2.918-2.088
		c-1.849,0.139-0.896,1.735-1.002,2.792c-0.233,2.272-1.394,4.116-2.896,5.771c-5.433-1.155-10.851-2.376-16.303-3.431
		c-2.185-0.424-4.166-1.122-5.949-2.46c-2.509-1.882-2.06-3.496,0.423-4.852c10.363-5.664,20.602-11.611,32.186-14.584
		c0.9,2.37,1.773,4.75,2.715,7.104c0.407,1.016,0.246,2.674,1.769,2.681c1.419,0.007,1.689-1.354,1.762-2.56
		c0.143-2.362,1.278-3.624,3.739-3.472c7.38,2.747,14.361-0.735,21.493-1.562c1.266-0.146-0.744-1.271-0.757-2.109
		c4.973-0.214,9.944-0.485,14.919-0.609c1.706-0.042,3.831-0.628,4.807,1.425c1.845,3.884,2.507,1.047,4.108-0.296
		c2.023-1.697,0.821-3.664,1.344-5.424c4.449-0.997,8.873,0.272,13.315,0.142c0.264,0.815,2.32,1.338-0.02,2.487
		c-7.715,3.784-14.82,8.375-19.939,15.604c-0.844,1.189-2.529,3.333-4.944,0.278c-1.969-2.491-3.398,0.225-3.799,2.204
		C7257.02,7168.703,7256.603,7172.003,7255.084,7175.02z"/>
	<path fill-rule="evenodd" clip-rule="evenodd" fill="#97362D" d="M7173.025,7328.566c1.887-0.688,2.096-2.912,3.519-3.942
		c4.193-3.033,3.383-5.307-1.04-6.814c-3.313-1.128-1.598-2.712-0.824-4.484c1.536-3.518-0.787-6.167-2.423-8.827
		c-1.624-2.641-3.518,0.219-5.305,0.072c-3.553-0.981-4.678-4.24-6.293-6.93c-8.4-13.985-13.833-29.197-14.222-45.419
		c-0.397-16.542,5.263-31.787,14.509-45.611c1.306-1.953,3.227-3.663,3.376-6.271c6.99,3.304,12.23,9.058,18.523,13.345
		c0.719,0.491,0.624,2.177,0.904,3.307c-2.256,3.757-4.408,7.576-6.799,11.242c-1.57,2.405-2.349,3.961,1.302,5.321
		c2.605,0.972,3.616,3.097,2.149,6.36c-4.388,9.752-4.922,20.239-3.826,30.622c1.92,18.186,9.806,32.924,27.156,40.858
		c7.844,3.588,16.539,2.486,24.931,2.736c-0.036,5.416-0.031,10.829-0.133,16.245c-0.035,1.814,0.868,4.271-2.35,4.478
		c-4.743,2.029-9.692,0.869-14.562,0.948c-2.636-4.268-0.941-8.966-1.231-13.453c-0.154-2.383-0.604-3.072-3.203-3.641
		c-4.499-0.981-9.207-0.038-13.57-1.909c-1.667-0.716-2.479,0.278-2.414,2.15c0.112,3.207-0.263,6.454,0.113,9.62
		c0.396,3.322-0.875,5.205-3.801,6.31c-4.18,0.004-8.358,0.005-12.538,0.009C7170.915,7333.833,7173.371,7330.768,7173.025,7328.566
		z"/>
	<path fill-rule="evenodd" clip-rule="evenodd" fill="#E19972" d="M7228.662,7314.132c-8.392-0.25-17.087,0.852-24.931-2.736
		c-17.351-7.935-25.236-22.673-27.156-40.858c-1.096-10.383-0.562-20.87,3.826-30.622c1.467-3.264,0.456-5.389-2.149-6.36
		c-3.65-1.36-2.872-2.916-1.302-5.321c2.391-3.666,4.543-7.485,6.799-11.242c1.589,0.867,1.628-2.516,4.212-0.951
		c10.34,6.263,21.841,9.565,34.34,11.38c-5.17,12.688-10.148,25.062-15.262,37.377c-1.929,4.645,1.066,16.092,5.011,19.06
		c1.454,1.092,2.109,0.133,3.074-0.465c8.35-5.157,15.701-10.527,14.791-22.311c-0.783-10.163,2.029-20.219,3.204-30.327
		c0.153-1.306-0.364-3.168,1.44-3.604c7.301-1.766,12.701-7.11,19.352-10.08c1.043,1.904,2.021,3.848,3.145,5.707
		c1.833,3.036,2.979,5.715-0.635,8.591c-2.769,2.205-1.428,4.946,0.173,7.533c5.292,8.552,8.747,17.666,8.255,27.966
		c-0.384,8.015-1.319,15.821-6.956,22.164c-1.831,2.061-0.993,5.658-4.059,6.997c-2.795-0.323-5.01,0.638-6.807,2.824
		c-4.532,5.51-11.459,8.434-15.621,14.396C7230.969,7313.876,7229.6,7313.854,7228.662,7314.132z"/>
	<path fill-rule="evenodd" clip-rule="evenodd" fill="#E19972" d="M7253.508,7314.943c0.841,3.405,3.076,1.519,4.723,1.12
		c7.929-1.919,15.688-4.404,23.133-7.758c3.972-1.788,8.723,0.24,12.397-2.72c0.827,0.035,1.655,0.07,2.483,0.104
		c-1.753,7.183-1.245,14.791-4.082,21.77c-0.642,1.579-0.637,3.347-3.077,3.868c-10.276,2.194-20.474,2.794-30.786,0.149
		c-2.457-0.63-3.495-0.966-2.496-3.838c1.005-2.893,1.516-6.146-3.474-6.131c-2.256,0.007-2.015-2.049-2.237-3.607
		C7249.688,7315.103,7251.703,7315.159,7253.508,7314.943z"/>
	<path fill-rule="evenodd" clip-rule="evenodd" fill="#97362D" d="M7193.151,7122.965c0.832-8.372,1.406-8.923,9.28-8.734
		c13.469,0.319,26.938,1.078,40.399,0.904c6.231-0.08,5.501,4.208,5.867,7.488c0.302,2.696-2.748,2.291-4.013,1.542
		c-4.094-2.429-7.921-3.576-12.593-1.264c-1.777,0.88-4.616,0.79-6.514,0.017c-4.743-1.933-6.923-0.462-9.271,3.953
		c-2.979,5.605-20.227,4.08-22.97-1.667C7192.944,7124.377,7193.168,7123.256,7193.151,7122.965z"/>
	<path fill-rule="evenodd" clip-rule="evenodd" fill="#FDFDFC" d="M7227.153,7153.308c-2.461-0.151-3.597,1.11-3.739,3.472
		c-0.072,1.205-0.343,2.567-1.762,2.56c-1.522-0.007-1.361-1.665-1.769-2.681c-0.941-2.353-1.814-4.733-2.715-7.104
		c13.306-2.649,26.553-5.699,40.284-5.041c5.196,0.249,10.408,0.155,15.614,0.217c-0.522,1.761,0.68,3.728-1.344,5.425
		c-1.602,1.343-2.264,4.18-4.108,0.296c-0.976-2.053-3.101-1.467-4.807-1.425c-4.975,0.124-9.946,0.396-14.921,0.609
		C7240.976,7150.86,7234.064,7152.084,7227.153,7153.308z"/>
	<path fill-rule="evenodd" clip-rule="evenodd" fill="#FDFDFC" d="M7206.813,7174.883c1.502-1.655,2.662-3.499,2.896-5.771
		c0.106-1.058-0.847-2.654,1.002-2.792c1.221-0.091,2.759,0.022,2.918,2.088c0.215,2.798,2.944,4.741,2.864,7.705
		C7213.266,7175.703,7210.039,7175.293,7206.813,7174.883z"/>
	<path fill-rule="evenodd" clip-rule="evenodd" fill="#B1252C" d="M7236.646,7215.777c-6.096,3.211-12.599,0.862-18.899,1.227
		c-0.074,0.005,0.881-0.861,1.52-1.134C7225.062,7215.838,7230.854,7215.808,7236.646,7215.777z"/>
	<path fill-rule="evenodd" clip-rule="evenodd" fill="#97362D" d="M7227.153,7153.308c6.911-1.224,13.822-2.448,20.734-3.671
		c0.015,0.837,2.024,1.962,0.759,2.109C7241.515,7152.573,7234.533,7156.055,7227.153,7153.308z"/>
</g>
</svg>
